<mxfile host="app.diagrams.net" modified="2024-02-17T10:42:48.024Z" agent="Mozilla/5.0 (Windows NT 10.0; Win64; x64) AppleWebKit/537.36 (KHTML, like Gecko) Chrome/122.0.0.0 Safari/537.36 Edg/122.0.0.0" etag="-umRfxSOlMk550nFFAsd" version="23.1.5" type="device">
  <diagram name="Страница — 1" id="kblMRacquqYwNxUZpJox">
    <mxGraphModel dx="1066" dy="705" grid="1" gridSize="10" guides="1" tooltips="1" connect="1" arrows="1" fold="1" page="1" pageScale="1" pageWidth="827" pageHeight="1169" math="0" shadow="0">
      <root>
        <mxCell id="0" />
        <mxCell id="1" parent="0" />
        <mxCell id="vdZ8USMluWkuP-_1ZYZ_-1" value="Информационная система автосалона" style="rounded=0;whiteSpace=wrap;html=1;" vertex="1" parent="1">
          <mxGeometry x="370" y="30" width="120" height="60" as="geometry" />
        </mxCell>
        <mxCell id="vdZ8USMluWkuP-_1ZYZ_-2" value="Подсистема учета и хранения данных об автомобилях" style="rounded=0;whiteSpace=wrap;html=1;" vertex="1" parent="1">
          <mxGeometry x="120" y="130" width="120" height="60" as="geometry" />
        </mxCell>
        <mxCell id="vdZ8USMluWkuP-_1ZYZ_-4" value="Подсистема учета и хранения данных о клиентах" style="rounded=0;whiteSpace=wrap;html=1;" vertex="1" parent="1">
          <mxGeometry x="280" y="130" width="120" height="60" as="geometry" />
        </mxCell>
        <mxCell id="vdZ8USMluWkuP-_1ZYZ_-5" value="Подсистема учета и хранения данных о заявках на просмотр" style="rounded=0;whiteSpace=wrap;html=1;" vertex="1" parent="1">
          <mxGeometry x="460" y="130" width="120" height="60" as="geometry" />
        </mxCell>
        <mxCell id="vdZ8USMluWkuP-_1ZYZ_-6" value="Подсистема пользователи" style="rounded=0;whiteSpace=wrap;html=1;" vertex="1" parent="1">
          <mxGeometry x="630" y="130" width="120" height="60" as="geometry" />
        </mxCell>
        <mxCell id="vdZ8USMluWkuP-_1ZYZ_-7" value="" style="endArrow=none;html=1;rounded=0;" edge="1" parent="1">
          <mxGeometry width="50" height="50" relative="1" as="geometry">
            <mxPoint x="180" y="110" as="sourcePoint" />
            <mxPoint x="690" y="110" as="targetPoint" />
          </mxGeometry>
        </mxCell>
        <mxCell id="vdZ8USMluWkuP-_1ZYZ_-8" value="" style="endArrow=none;html=1;rounded=0;exitX=0.5;exitY=0;exitDx=0;exitDy=0;" edge="1" parent="1" source="vdZ8USMluWkuP-_1ZYZ_-2">
          <mxGeometry width="50" height="50" relative="1" as="geometry">
            <mxPoint x="390" y="410" as="sourcePoint" />
            <mxPoint x="180" y="110" as="targetPoint" />
          </mxGeometry>
        </mxCell>
        <mxCell id="vdZ8USMluWkuP-_1ZYZ_-9" value="" style="endArrow=none;html=1;rounded=0;exitX=0.5;exitY=0;exitDx=0;exitDy=0;" edge="1" parent="1" source="vdZ8USMluWkuP-_1ZYZ_-4">
          <mxGeometry width="50" height="50" relative="1" as="geometry">
            <mxPoint x="390" y="410" as="sourcePoint" />
            <mxPoint x="340" y="110" as="targetPoint" />
          </mxGeometry>
        </mxCell>
        <mxCell id="vdZ8USMluWkuP-_1ZYZ_-10" value="" style="endArrow=none;html=1;rounded=0;exitX=0.5;exitY=0;exitDx=0;exitDy=0;" edge="1" parent="1" source="vdZ8USMluWkuP-_1ZYZ_-5">
          <mxGeometry width="50" height="50" relative="1" as="geometry">
            <mxPoint x="390" y="410" as="sourcePoint" />
            <mxPoint x="520" y="110" as="targetPoint" />
          </mxGeometry>
        </mxCell>
        <mxCell id="vdZ8USMluWkuP-_1ZYZ_-11" value="" style="endArrow=none;html=1;rounded=0;exitX=0.5;exitY=0;exitDx=0;exitDy=0;" edge="1" parent="1" source="vdZ8USMluWkuP-_1ZYZ_-6">
          <mxGeometry width="50" height="50" relative="1" as="geometry">
            <mxPoint x="390" y="410" as="sourcePoint" />
            <mxPoint x="690" y="110" as="targetPoint" />
          </mxGeometry>
        </mxCell>
        <mxCell id="vdZ8USMluWkuP-_1ZYZ_-12" value="" style="endArrow=none;html=1;rounded=0;exitX=0.5;exitY=1;exitDx=0;exitDy=0;" edge="1" parent="1" source="vdZ8USMluWkuP-_1ZYZ_-1">
          <mxGeometry width="50" height="50" relative="1" as="geometry">
            <mxPoint x="390" y="410" as="sourcePoint" />
            <mxPoint x="430" y="110" as="targetPoint" />
          </mxGeometry>
        </mxCell>
        <mxCell id="vdZ8USMluWkuP-_1ZYZ_-13" value="" style="endArrow=none;html=1;rounded=0;exitX=0.5;exitY=1;exitDx=0;exitDy=0;" edge="1" parent="1" source="vdZ8USMluWkuP-_1ZYZ_-2">
          <mxGeometry width="50" height="50" relative="1" as="geometry">
            <mxPoint x="390" y="410" as="sourcePoint" />
            <mxPoint x="180" y="380" as="targetPoint" />
          </mxGeometry>
        </mxCell>
        <mxCell id="vdZ8USMluWkuP-_1ZYZ_-14" value="Создание карточки&lt;br&gt;автомобиля" style="text;html=1;align=center;verticalAlign=middle;resizable=0;points=[];autosize=1;strokeColor=none;fillColor=none;" vertex="1" parent="1">
          <mxGeometry x="30" y="210" width="130" height="40" as="geometry" />
        </mxCell>
        <mxCell id="vdZ8USMluWkuP-_1ZYZ_-15" value="Управление данными&lt;br&gt;об автомобилях" style="text;html=1;align=center;verticalAlign=middle;resizable=0;points=[];autosize=1;strokeColor=none;fillColor=none;" vertex="1" parent="1">
          <mxGeometry x="25" y="270" width="140" height="40" as="geometry" />
        </mxCell>
        <mxCell id="vdZ8USMluWkuP-_1ZYZ_-16" value="Удаление карточек&lt;br&gt;автомобилей" style="text;html=1;align=center;verticalAlign=middle;resizable=0;points=[];autosize=1;strokeColor=none;fillColor=none;" vertex="1" parent="1">
          <mxGeometry x="30" y="340" width="130" height="40" as="geometry" />
        </mxCell>
        <mxCell id="vdZ8USMluWkuP-_1ZYZ_-17" value="" style="endArrow=none;html=1;rounded=0;exitX=0.992;exitY=0.5;exitDx=0;exitDy=0;exitPerimeter=0;" edge="1" parent="1" source="vdZ8USMluWkuP-_1ZYZ_-14">
          <mxGeometry width="50" height="50" relative="1" as="geometry">
            <mxPoint x="390" y="410" as="sourcePoint" />
            <mxPoint x="180" y="230" as="targetPoint" />
          </mxGeometry>
        </mxCell>
        <mxCell id="vdZ8USMluWkuP-_1ZYZ_-19" value="" style="endArrow=none;html=1;rounded=0;exitX=0.992;exitY=0.5;exitDx=0;exitDy=0;exitPerimeter=0;" edge="1" parent="1">
          <mxGeometry width="50" height="50" relative="1" as="geometry">
            <mxPoint x="160" y="289.5" as="sourcePoint" />
            <mxPoint x="181" y="289.5" as="targetPoint" />
          </mxGeometry>
        </mxCell>
        <mxCell id="vdZ8USMluWkuP-_1ZYZ_-20" value="" style="endArrow=none;html=1;rounded=0;exitX=0.992;exitY=0.5;exitDx=0;exitDy=0;exitPerimeter=0;" edge="1" parent="1">
          <mxGeometry width="50" height="50" relative="1" as="geometry">
            <mxPoint x="160" y="359.5" as="sourcePoint" />
            <mxPoint x="181" y="359.5" as="targetPoint" />
          </mxGeometry>
        </mxCell>
        <mxCell id="vdZ8USMluWkuP-_1ZYZ_-22" value="" style="endArrow=none;html=1;rounded=0;exitX=0.5;exitY=1;exitDx=0;exitDy=0;" edge="1" parent="1">
          <mxGeometry width="50" height="50" relative="1" as="geometry">
            <mxPoint x="335" y="190" as="sourcePoint" />
            <mxPoint x="335" y="380" as="targetPoint" />
          </mxGeometry>
        </mxCell>
        <mxCell id="vdZ8USMluWkuP-_1ZYZ_-23" value="Создание карточки&lt;br&gt;клиента" style="text;html=1;align=center;verticalAlign=middle;resizable=0;points=[];autosize=1;strokeColor=none;fillColor=none;" vertex="1" parent="1">
          <mxGeometry x="185" y="210" width="130" height="40" as="geometry" />
        </mxCell>
        <mxCell id="vdZ8USMluWkuP-_1ZYZ_-24" value="Управление данными&lt;br&gt;об клиентах" style="text;html=1;align=center;verticalAlign=middle;resizable=0;points=[];autosize=1;strokeColor=none;fillColor=none;" vertex="1" parent="1">
          <mxGeometry x="180" y="270" width="140" height="40" as="geometry" />
        </mxCell>
        <mxCell id="vdZ8USMluWkuP-_1ZYZ_-25" value="Удаление карточек&lt;br&gt;клиентов" style="text;html=1;align=center;verticalAlign=middle;resizable=0;points=[];autosize=1;strokeColor=none;fillColor=none;" vertex="1" parent="1">
          <mxGeometry x="185" y="340" width="130" height="40" as="geometry" />
        </mxCell>
        <mxCell id="vdZ8USMluWkuP-_1ZYZ_-26" value="" style="endArrow=none;html=1;rounded=0;exitX=0.992;exitY=0.5;exitDx=0;exitDy=0;exitPerimeter=0;" edge="1" parent="1" source="vdZ8USMluWkuP-_1ZYZ_-23">
          <mxGeometry width="50" height="50" relative="1" as="geometry">
            <mxPoint x="545" y="410" as="sourcePoint" />
            <mxPoint x="335" y="230" as="targetPoint" />
          </mxGeometry>
        </mxCell>
        <mxCell id="vdZ8USMluWkuP-_1ZYZ_-27" value="" style="endArrow=none;html=1;rounded=0;exitX=0.992;exitY=0.5;exitDx=0;exitDy=0;exitPerimeter=0;" edge="1" parent="1">
          <mxGeometry width="50" height="50" relative="1" as="geometry">
            <mxPoint x="315" y="289.5" as="sourcePoint" />
            <mxPoint x="336" y="289.5" as="targetPoint" />
          </mxGeometry>
        </mxCell>
        <mxCell id="vdZ8USMluWkuP-_1ZYZ_-28" value="" style="endArrow=none;html=1;rounded=0;exitX=0.992;exitY=0.5;exitDx=0;exitDy=0;exitPerimeter=0;" edge="1" parent="1">
          <mxGeometry width="50" height="50" relative="1" as="geometry">
            <mxPoint x="315" y="359.5" as="sourcePoint" />
            <mxPoint x="336" y="359.5" as="targetPoint" />
          </mxGeometry>
        </mxCell>
        <mxCell id="vdZ8USMluWkuP-_1ZYZ_-29" value="" style="endArrow=none;html=1;rounded=0;exitX=0.5;exitY=1;exitDx=0;exitDy=0;" edge="1" parent="1">
          <mxGeometry width="50" height="50" relative="1" as="geometry">
            <mxPoint x="695" y="190" as="sourcePoint" />
            <mxPoint x="695" y="380" as="targetPoint" />
          </mxGeometry>
        </mxCell>
        <mxCell id="vdZ8USMluWkuP-_1ZYZ_-30" value="Создание пользователя" style="text;html=1;align=center;verticalAlign=middle;resizable=0;points=[];autosize=1;strokeColor=none;fillColor=none;" vertex="1" parent="1">
          <mxGeometry x="530" y="215" width="160" height="30" as="geometry" />
        </mxCell>
        <mxCell id="vdZ8USMluWkuP-_1ZYZ_-31" value="Назначение доступа&lt;br&gt;администратора &lt;br&gt;системы" style="text;html=1;align=center;verticalAlign=middle;resizable=0;points=[];autosize=1;strokeColor=none;fillColor=none;" vertex="1" parent="1">
          <mxGeometry x="540" y="260" width="140" height="60" as="geometry" />
        </mxCell>
        <mxCell id="vdZ8USMluWkuP-_1ZYZ_-32" value="Удаление пользователя" style="text;html=1;align=center;verticalAlign=middle;resizable=0;points=[];autosize=1;strokeColor=none;fillColor=none;" vertex="1" parent="1">
          <mxGeometry x="520" y="345" width="160" height="30" as="geometry" />
        </mxCell>
        <mxCell id="vdZ8USMluWkuP-_1ZYZ_-33" value="" style="endArrow=none;html=1;rounded=0;exitX=0.992;exitY=0.5;exitDx=0;exitDy=0;exitPerimeter=0;" edge="1" parent="1" source="vdZ8USMluWkuP-_1ZYZ_-30">
          <mxGeometry width="50" height="50" relative="1" as="geometry">
            <mxPoint x="905" y="410" as="sourcePoint" />
            <mxPoint x="695" y="230" as="targetPoint" />
          </mxGeometry>
        </mxCell>
        <mxCell id="vdZ8USMluWkuP-_1ZYZ_-34" value="" style="endArrow=none;html=1;rounded=0;exitX=0.992;exitY=0.5;exitDx=0;exitDy=0;exitPerimeter=0;" edge="1" parent="1">
          <mxGeometry width="50" height="50" relative="1" as="geometry">
            <mxPoint x="675" y="289.5" as="sourcePoint" />
            <mxPoint x="696" y="289.5" as="targetPoint" />
          </mxGeometry>
        </mxCell>
        <mxCell id="vdZ8USMluWkuP-_1ZYZ_-35" value="" style="endArrow=none;html=1;rounded=0;exitX=0.992;exitY=0.5;exitDx=0;exitDy=0;exitPerimeter=0;" edge="1" parent="1">
          <mxGeometry width="50" height="50" relative="1" as="geometry">
            <mxPoint x="675" y="359.5" as="sourcePoint" />
            <mxPoint x="696" y="359.5" as="targetPoint" />
          </mxGeometry>
        </mxCell>
        <mxCell id="vdZ8USMluWkuP-_1ZYZ_-56" value="" style="endArrow=none;html=1;rounded=0;exitX=0.5;exitY=1;exitDx=0;exitDy=0;" edge="1" parent="1">
          <mxGeometry width="50" height="50" relative="1" as="geometry">
            <mxPoint x="519" y="190" as="sourcePoint" />
            <mxPoint x="520" y="420" as="targetPoint" />
          </mxGeometry>
        </mxCell>
        <mxCell id="vdZ8USMluWkuP-_1ZYZ_-57" value="Создание документа&lt;br&gt;&amp;nbsp;о просмотре авто" style="text;html=1;align=center;verticalAlign=middle;resizable=0;points=[];autosize=1;strokeColor=none;fillColor=none;" vertex="1" parent="1">
          <mxGeometry x="364" y="210" width="140" height="40" as="geometry" />
        </mxCell>
        <mxCell id="vdZ8USMluWkuP-_1ZYZ_-58" value="Управление данными&lt;br&gt;документов" style="text;html=1;align=center;verticalAlign=middle;resizable=0;points=[];autosize=1;strokeColor=none;fillColor=none;" vertex="1" parent="1">
          <mxGeometry x="364" y="270" width="140" height="40" as="geometry" />
        </mxCell>
        <mxCell id="vdZ8USMluWkuP-_1ZYZ_-59" value="Удаление документов" style="text;html=1;align=center;verticalAlign=middle;resizable=0;points=[];autosize=1;strokeColor=none;fillColor=none;" vertex="1" parent="1">
          <mxGeometry x="359" y="345" width="150" height="30" as="geometry" />
        </mxCell>
        <mxCell id="vdZ8USMluWkuP-_1ZYZ_-60" value="" style="endArrow=none;html=1;rounded=0;exitX=0.992;exitY=0.5;exitDx=0;exitDy=0;exitPerimeter=0;" edge="1" parent="1" source="vdZ8USMluWkuP-_1ZYZ_-57">
          <mxGeometry width="50" height="50" relative="1" as="geometry">
            <mxPoint x="729" y="410" as="sourcePoint" />
            <mxPoint x="519" y="230" as="targetPoint" />
          </mxGeometry>
        </mxCell>
        <mxCell id="vdZ8USMluWkuP-_1ZYZ_-61" value="" style="endArrow=none;html=1;rounded=0;exitX=0.992;exitY=0.5;exitDx=0;exitDy=0;exitPerimeter=0;" edge="1" parent="1">
          <mxGeometry width="50" height="50" relative="1" as="geometry">
            <mxPoint x="499" y="289.5" as="sourcePoint" />
            <mxPoint x="520" y="289.5" as="targetPoint" />
          </mxGeometry>
        </mxCell>
        <mxCell id="vdZ8USMluWkuP-_1ZYZ_-62" value="" style="endArrow=none;html=1;rounded=0;exitX=0.992;exitY=0.5;exitDx=0;exitDy=0;exitPerimeter=0;" edge="1" parent="1">
          <mxGeometry width="50" height="50" relative="1" as="geometry">
            <mxPoint x="499" y="359.5" as="sourcePoint" />
            <mxPoint x="520" y="359.5" as="targetPoint" />
          </mxGeometry>
        </mxCell>
        <mxCell id="vdZ8USMluWkuP-_1ZYZ_-63" value="Изменение статуса&lt;br&gt;документа" style="text;html=1;align=center;verticalAlign=middle;resizable=0;points=[];autosize=1;strokeColor=none;fillColor=none;" vertex="1" parent="1">
          <mxGeometry x="369" y="385" width="130" height="40" as="geometry" />
        </mxCell>
        <mxCell id="vdZ8USMluWkuP-_1ZYZ_-64" value="" style="endArrow=none;html=1;rounded=0;exitX=0.992;exitY=0.5;exitDx=0;exitDy=0;exitPerimeter=0;" edge="1" parent="1">
          <mxGeometry width="50" height="50" relative="1" as="geometry">
            <mxPoint x="499" y="404.5" as="sourcePoint" />
            <mxPoint x="520" y="404.5" as="targetPoint" />
          </mxGeometry>
        </mxCell>
      </root>
    </mxGraphModel>
  </diagram>
</mxfile>
